<?xml version="1.0" encoding="UTF-8" standalone="no"?>
<svg
   version="1.1"
   width="2.0830843cm"
   height="0.78573376cm"
   viewBox="0 0 8201.1198 3093.44"
   id="svg206"
   sodipodi:docname="blink_led.svg"
   inkscape:version="1.1.2 (0a00cf5339, 2022-02-04)"
   xmlns:inkscape="http://www.inkscape.org/namespaces/inkscape"
   xmlns:sodipodi="http://sodipodi.sourceforge.net/DTD/sodipodi-0.dtd"
   xmlns="http://www.w3.org/2000/svg"
   xmlns:svg="http://www.w3.org/2000/svg"
   xmlns:rdf="http://www.w3.org/1999/02/22-rdf-syntax-ns#"
   xmlns:cc="http://creativecommons.org/ns#"
   xmlns:dc="http://purl.org/dc/elements/1.1/">
  <defs
     id="defs210" />
  <sodipodi:namedview
     id="namedview208"
     pagecolor="#ffffff"
     bordercolor="#666666"
     borderopacity="1.0"
     inkscape:pageshadow="2"
     inkscape:pageopacity="0.0"
     inkscape:pagecheckerboard="0"
     inkscape:document-units="cm"
     showgrid="false"
     fit-margin-top="0"
     fit-margin-left="0"
     fit-margin-right="0"
     fit-margin-bottom="0"
     inkscape:zoom="11.183571"
     inkscape:cx="42.517726"
     inkscape:cy="21.236509"
     inkscape:window-width="1850"
     inkscape:window-height="1016"
     inkscape:window-x="0"
     inkscape:window-y="0"
     inkscape:window-maximized="1"
     inkscape:current-layer="svg206" />
  <title
     id="title2">SVG Picture created as blink_led.svg date 2023/02/05 20:37:01 </title>
  <desc
     id="desc4">Picture generated by Eeschema-SVG </desc>
  <g
     style="fill:#000000;fill-opacity:1;stroke:#000000;stroke-linecap:round;stroke-linejoin:round;stroke-opacity:1"
     id="g6"
     transform="translate(-34579.98,-22696)" />
  <g
     style="fill:#000000;fill-opacity:0;stroke:#000000;stroke-width:60;stroke-linecap:round;stroke-linejoin:round;stroke-opacity:1"
     id="g30"
     transform="translate(-34579.98,-22696)">
    <g
       id="g28">
      <path
         style="fill:none;fill-opacity:0;stroke:#000000;stroke-width:60;stroke-linecap:round;stroke-linejoin:round;stroke-opacity:1"
         d="m 35700,24500 300,500"
         id="path8" />
      <path
         style="fill:none;fill-opacity:0;stroke:#000000;stroke-width:60;stroke-linecap:round;stroke-linejoin:round;stroke-opacity:1"
         d="m 36000,24000 v 1000"
         id="path10" />
      <path
         style="fill:none;fill-opacity:0;stroke:#000000;stroke-width:60;stroke-linecap:round;stroke-linejoin:round;stroke-opacity:1"
         d="m 36000,25000 300,-500"
         id="path12" />
      <text
         x="36000"
         y="25750"
         textLength="1653.8188"
         font-size="666.654px"
         lengthAdjust="spacingAndGlyphs"
         text-anchor="middle"
         opacity="0"
         id="text14">+5V</text>
      <g
         class="stroked-text"
         id="g26">
        <desc
           id="desc16">+5V</desc>
        <path
           d="m 35357,25535 h 381"
           id="path18" />
        <path
           d="m 35547,25726 v -381"
           id="path20" />
        <path
           d="m 36214,25226 h -238 l -24,238 24,-24 47,-24 h 119 l 48,24 24,24 24,47 v 119 l -24,48 -24,24 -48,24 h -119 l -47,-24 -24,-24"
           id="path22" />
        <path
           d="m 36380,25226 167,500 167,-500"
           id="path24" />
      </g>
    </g>
  </g>
  <g
     style="fill:#000000;fill-opacity:0;stroke:#000000;stroke-width:60;stroke-linecap:round;stroke-linejoin:round;stroke-opacity:1"
     id="g70"
     transform="translate(-34579.98,-22696)">
    <g
       id="g32" />
    <g
       style="fill:#000000;fill-opacity:0;stroke:#000000;stroke-width:100;stroke-linecap:round;stroke-linejoin:round;stroke-opacity:1"
       id="g36">
      <path
         style="fill:none;fill-opacity:0;stroke:#000000;stroke-width:100;stroke-linecap:round;stroke-linejoin:round;stroke-opacity:1"
         d="m 41000,23500 v 1000"
         id="path34" />
    </g>
    <g
       style="fill:#000000;fill-opacity:0;stroke:#000000;stroke-width:60;stroke-linecap:round;stroke-linejoin:round;stroke-opacity:1"
       id="g40">
      <path
         style="fill:none;fill-opacity:0;stroke:#000000;stroke-width:60;stroke-linecap:round;stroke-linejoin:round;stroke-opacity:1"
         d="M 41000,24000 H 40000"
         id="path38" />
    </g>
    <g
       style="fill:#000000;fill-opacity:0;stroke:#000000;stroke-width:100;stroke-linecap:round;stroke-linejoin:round;stroke-opacity:1"
       id="g44">
      <path
         style="fill:none;fill-opacity:0;stroke:#000000;stroke-width:100;stroke-linecap:round;stroke-linejoin:round;stroke-opacity:1"
         d="m 40000,23500 v 1000 l 1000,-500 z"
         id="path42" />
    </g>
    <g
       style="fill:#000000;fill-opacity:0;stroke:#000000;stroke-width:60;stroke-linecap:round;stroke-linejoin:round;stroke-opacity:1"
       id="g68">
      <path
         style="fill:none;fill-opacity:0;stroke:#000000;stroke-width:60;stroke-linecap:round;stroke-linejoin:round;stroke-opacity:1"
         d="m 41700,23700 600,-600 h -300 300 v 300"
         id="path46" />
      <path
         style="fill:none;fill-opacity:0;stroke:#000000;stroke-width:60;stroke-linecap:round;stroke-linejoin:round;stroke-opacity:1"
         d="m 41200,23700 600,-600 h -300 300 v 300"
         id="path48" />
      <path
         d="m 41000,24000 h 1000"
         id="path50" />
      <path
         d="M 40000,24000 H 39000"
         id="path52" />
      <text
         x="40499.961"
         y="23250"
         textLength="1417.126"
         font-size="666.654px"
         lengthAdjust="spacingAndGlyphs"
         text-anchor="middle"
         opacity="0"
         id="text54">LED</text>
      <g
         class="stroked-text"
         id="g66">
        <desc
           id="desc56">LED</desc>
        <path
           d="m 40178,23226 h -238 v -500"
           id="path58" />
        <path
           d="m 40345,22964 h 166"
           id="path60" />
        <path
           d="m 40583,23226 h -238 v -500 h 238"
           id="path62" />
        <path
           d="m 40797,23226 v -500 h 119 l 72,24 47,47 24,48 24,95 v 71 l -24,96 -24,47 -47,48 -72,24 h -119"
           id="path64" />
      </g>
    </g>
  </g>
  <g
     style="fill:#000000;fill-opacity:0;stroke:#000000;stroke-width:60;stroke-linecap:round;stroke-linejoin:round;stroke-opacity:1"
     id="g104"
     transform="translate(-34579.98,-22696)">
    <g
       id="g102">
      <path
         style="fill:none;fill-opacity:0;stroke:#000000;stroke-width:60;stroke-linecap:round;stroke-linejoin:round;stroke-opacity:1"
         d="m 38400,24000 h 100"
         id="path72" />
      <path
         style="fill:none;fill-opacity:0;stroke:#000000;stroke-width:60;stroke-linecap:round;stroke-linejoin:round;stroke-opacity:1"
         d="m 36600,24000 h -100"
         id="path74" />
      <path
         style="fill:none;fill-opacity:0;stroke:#000000;stroke-width:60;stroke-linecap:round;stroke-linejoin:round;stroke-opacity:1"
         d="m 37800,24000 150,-400 150,400 150,400 150,-400"
         id="path76" />
      <path
         style="fill:none;fill-opacity:0;stroke:#000000;stroke-width:60;stroke-linecap:round;stroke-linejoin:round;stroke-opacity:1"
         d="m 37200,24000 150,-400 150,400 150,400 150,-400"
         id="path78" />
      <path
         style="fill:none;fill-opacity:0;stroke:#000000;stroke-width:60;stroke-linecap:round;stroke-linejoin:round;stroke-opacity:1"
         d="m 36600,24000 150,-400 150,400 150,400 150,-400"
         id="path80" />
      <path
         d="m 36500,24000 h -500"
         id="path82" />
      <path
         d="m 38500,24000 h 500"
         id="path84" />
      <text
         x="37500"
         y="23250"
         textLength="1988.5826"
         font-size="666.654px"
         lengthAdjust="spacingAndGlyphs"
         text-anchor="middle"
         opacity="0"
         id="text86">330R</text>
      <g
         class="stroked-text"
         id="g100">
        <desc
           id="desc88">330R</desc>
        <path
           d="m 36607,22726 h 309 l -166,190 h 71 l 48,24 23,24 24,47 v 119 l -24,48 -23,24 -48,24 h -143 l -48,-24 -23,-24"
           id="path90" />
        <path
           d="m 37083,22726 h 309 l -166,190 h 71 l 48,24 24,24 23,47 v 119 l -23,48 -24,24 -48,24 h -143 l -47,-24 -24,-24"
           id="path92" />
        <path
           d="m 37702,22726 h 48 l 47,24 24,23 24,48 24,95 v 119 l -24,95 -24,48 -24,24 -47,24 h -48 l -48,-24 -24,-24 -23,-48 -24,-95 v -119 l 24,-95 23,-48 24,-23 48,-24"
           id="path94" />
        <path
           d="m 38369,23226 -167,-238"
           id="path96" />
        <path
           d="m 38083,23226 v -500 h 190 l 48,24 24,23 24,48 v 71 l -24,48 -24,24 -48,24 h -190"
           id="path98" />
      </g>
    </g>
  </g>
  <g
     style="fill:#000000;fill-opacity:0;stroke:#000000;stroke-width:60;stroke-linecap:round;stroke-linejoin:round;stroke-opacity:1"
     id="g122"
     transform="translate(-34579.98,-22696)">
    <g
       id="g120">
      <path
         style="fill:none;fill-opacity:0;stroke:#000000;stroke-width:60;stroke-linecap:round;stroke-linejoin:round;stroke-opacity:1"
         d="m 42000,24000 v 500 h 500 l -500,500 -500,-500 h 500"
         id="path106" />
      <text
         x="42000"
         y="25749.961"
         textLength="1583.8188"
         font-size="666.654px"
         lengthAdjust="spacingAndGlyphs"
         text-anchor="middle"
         opacity="0"
         id="text108">GND</text>
      <g
         class="stroked-text"
         id="g118">
        <desc
           id="desc110">GND</desc>
        <path
           d="m 41619,25249 -48,-23 h -71 l -72,23 -48,48 -23,48 -24,95 v 71 l 24,96 23,47 48,48 72,24 h 47 l 72,-24 23,-24 v -167 h -95"
           id="path112" />
        <path
           d="m 41857,25726 v -500 l 285,500 v -500"
           id="path114" />
        <path
           d="m 42380,25726 v -500 h 120 l 71,23 48,48 23,48 24,95 v 71 l -24,96 -23,47 -48,48 -71,24 h -120"
           id="path116" />
      </g>
    </g>
  </g>
  <g
     style="fill:#000000;fill-opacity:0;stroke:#000000;stroke-width:62.5197;stroke-linecap:round;stroke-linejoin:round;stroke-opacity:1"
     id="g124"
     transform="translate(-34579.98,-22696)" />
  <g
     style="fill:#000000;fill-opacity:0;stroke:#000000;stroke-width:60;stroke-linecap:round;stroke-linejoin:round;stroke-opacity:1"
     id="g204"
     transform="translate(-34579.98,-22696)">
    <text
       x="36000"
       y="23862.48"
       textLength="1464.7638"
       font-size="666.654px"
       lengthAdjust="spacingAndGlyphs"
       text-anchor="end"
       opacity="0"
       id="text126">PV1</text>
    <g
       class="stroked-text"
       id="g138">
      <desc
         id="desc128">PV1</desc>
      <path
         d="m 34684,23838 v -500 h 190 l 48,24 24,24 24,47 v 72 l -24,47 -24,24 -48,24 h -190"
         id="path130" />
      <path
         d="m 35112,23338 167,500 167,-500"
         id="path132" />
      <path
         d="m 35874,23838 h -285"
         id="path134" />
      <path
         d="m 35731,23838 v -500 l -47,72 -48,47 -47,24"
         id="path136" />
    </g>
    <text
       x="36000"
       y="25750"
       textLength="1583.8188"
       font-size="666.654px"
       lengthAdjust="spacingAndGlyphs"
       text-anchor="middle"
       opacity="0"
       id="text140">+5V</text>
    <g
       class="stroked-text"
       id="g152">
      <desc
         id="desc142">+5V</desc>
      <path
         d="m 35357,25535 h 381"
         id="path144" />
      <path
         d="m 35547,25726 v -381"
         id="path146" />
      <path
         d="m 36214,25226 h -238 l -24,238 24,-24 47,-24 h 119 l 48,24 24,24 24,47 v 119 l -24,48 -24,24 -48,24 h -119 l -47,-24 -24,-24"
         id="path148" />
      <path
         d="m 36380,25226 167,500 167,-500"
         id="path150" />
    </g>
    <text
       x="40499.961"
       y="23250"
       textLength="1417.126"
       font-size="666.654px"
       lengthAdjust="spacingAndGlyphs"
       text-anchor="middle"
       opacity="0"
       id="text154">LED</text>
    <g
       class="stroked-text"
       id="g166">
      <desc
         id="desc156">LED</desc>
      <path
         d="m 40178,23226 h -238 v -500"
         id="path158" />
      <path
         d="m 40345,22964 h 166"
         id="path160" />
      <path
         d="m 40583,23226 h -238 v -500 h 238"
         id="path162" />
      <path
         d="m 40797,23226 v -500 h 119 l 72,24 47,47 24,48 24,95 v 71 l -24,96 -24,47 -47,48 -72,24 h -119"
         id="path164" />
    </g>
    <path
       d="m 41000,24000 h 1000"
       id="path168" />
    <path
       d="M 40000,24000 H 39000"
       id="path170" />
    <text
       x="37500"
       y="23250"
       textLength="1988.5826"
       font-size="666.654px"
       lengthAdjust="spacingAndGlyphs"
       text-anchor="middle"
       opacity="0"
       id="text172">330R</text>
    <g
       class="stroked-text"
       id="g186">
      <desc
         id="desc174">330R</desc>
      <path
         d="m 36607,22726 h 309 l -166,190 h 71 l 48,24 23,24 24,47 v 119 l -24,48 -23,24 -48,24 h -143 l -48,-24 -23,-24"
         id="path176" />
      <path
         d="m 37083,22726 h 309 l -166,190 h 71 l 48,24 24,24 23,47 v 119 l -23,48 -24,24 -48,24 h -143 l -47,-24 -24,-24"
         id="path178" />
      <path
         d="m 37702,22726 h 48 l 47,24 24,23 24,48 24,95 v 119 l -24,95 -24,48 -24,24 -47,24 h -48 l -48,-24 -24,-24 -23,-48 -24,-95 v -119 l 24,-95 23,-48 24,-23 48,-24"
         id="path180" />
      <path
         d="m 38369,23226 -167,-238"
         id="path182" />
      <path
         d="m 38083,23226 v -500 h 190 l 48,24 24,23 24,48 v 71 l -24,48 -24,24 -48,24 h -190"
         id="path184" />
    </g>
    <path
       d="m 36500,24000 h -500"
       id="path188" />
    <path
       d="m 38500,24000 h 500"
       id="path190" />
    <text
       x="42000"
       y="25749.961"
       textLength="1583.8188"
       font-size="666.654px"
       lengthAdjust="spacingAndGlyphs"
       text-anchor="middle"
       opacity="0"
       id="text192">GND</text>
    <g
       class="stroked-text"
       id="g202">
      <desc
         id="desc194">GND</desc>
      <path
         d="m 41619,25249 -48,-23 h -71 l -72,23 -48,48 -23,48 -24,95 v 71 l 24,96 23,47 48,48 72,24 h 47 l 72,-24 23,-24 v -167 h -95"
         id="path196" />
      <path
         d="m 41857,25726 v -500 l 285,500 v -500"
         id="path198" />
      <path
         d="m 42380,25726 v -500 h 120 l 71,23 48,48 23,48 24,95 v 71 l -24,96 -23,47 -48,48 -71,24 h -120"
         id="path200" />
    </g>
  </g>
  <metadata
     id="metadata212">
    <rdf:RDF>
      <cc:Work
         rdf:about="">
        <dc:title>SVG Picture created as blink_led.svg date 2023/02/05 20:37:01 </dc:title>
      </cc:Work>
    </rdf:RDF>
  </metadata>
</svg>
