<?xml version="1.0" encoding="UTF-8" standalone="no"?>
<svg
   version="1.1"
   width="2.0915163cm"
   height="1.2937337cm"
   viewBox="0 0 8234.3163 5093.4398"
   id="svg260"
   sodipodi:docname="blink_led_reverse.svg"
   inkscape:version="1.1.2 (0a00cf5339, 2022-02-04)"
   xmlns:inkscape="http://www.inkscape.org/namespaces/inkscape"
   xmlns:sodipodi="http://sodipodi.sourceforge.net/DTD/sodipodi-0.dtd"
   xmlns="http://www.w3.org/2000/svg"
   xmlns:svg="http://www.w3.org/2000/svg"
   xmlns:rdf="http://www.w3.org/1999/02/22-rdf-syntax-ns#"
   xmlns:cc="http://creativecommons.org/ns#"
   xmlns:dc="http://purl.org/dc/elements/1.1/">
  <defs
     id="defs264" />
  <sodipodi:namedview
     id="namedview262"
     pagecolor="#ffffff"
     bordercolor="#666666"
     borderopacity="1.0"
     inkscape:pageshadow="2"
     inkscape:pageopacity="0.0"
     inkscape:pagecheckerboard="0"
     inkscape:document-units="cm"
     showgrid="false"
     fit-margin-top="0"
     fit-margin-left="0"
     fit-margin-right="0"
     fit-margin-bottom="0"
     inkscape:zoom="1.3979463"
     inkscape:cx="64.737821"
     inkscape:cy="80.475192"
     inkscape:window-width="1850"
     inkscape:window-height="1016"
     inkscape:window-x="0"
     inkscape:window-y="0"
     inkscape:window-maximized="1"
     inkscape:current-layer="svg260" />
  <title
     id="title2">SVG Picture created as blink_led_reverse.svg date 2023/02/05 21:39:39 </title>
  <desc
     id="desc4">Picture generated by Eeschema-SVG </desc>
  <g
     style="fill:#000000;fill-opacity:1;stroke:#000000;stroke-linecap:round;stroke-linejoin:round;stroke-opacity:1"
     id="g6"
     transform="translate(-34579.98,-20696)" />
  <g
     style="fill:#000000;fill-opacity:0;stroke:#000000;stroke-width:60;stroke-linecap:round;stroke-linejoin:round;stroke-opacity:1"
     id="g24"
     transform="translate(-34579.98,-20696)">
    <g
       id="g22">
      <path
         style="fill:none;fill-opacity:0;stroke:#000000;stroke-width:60;stroke-linecap:round;stroke-linejoin:round;stroke-opacity:1"
         d="m 42000,24000 v 500 h 500 l -500,500 -500,-500 h 500"
         id="path8" />
      <text
         x="42000"
         y="25749.961"
         textLength="1653.8188"
         font-size="666.654px"
         lengthAdjust="spacingAndGlyphs"
         text-anchor="middle"
         opacity="0"
         id="text10">GND</text>
      <g
         class="stroked-text"
         id="g20">
        <desc
           id="desc12">GND</desc>
        <path
           d="m 41619,25249 -48,-23 h -71 l -72,23 -48,48 -23,48 -24,95 v 71 l 24,96 23,47 48,48 72,24 h 47 l 72,-24 23,-24 v -167 h -95"
           id="path14" />
        <path
           d="m 41857,25726 v -500 l 285,500 v -500"
           id="path16" />
        <path
           d="m 42380,25726 v -500 h 120 l 71,23 48,48 23,48 24,95 v 71 l -24,96 -23,47 -48,48 -71,24 h -120"
           id="path18" />
      </g>
    </g>
  </g>
  <g
     style="fill:#000000;fill-opacity:0;stroke:#000000;stroke-width:60;stroke-linecap:round;stroke-linejoin:round;stroke-opacity:1"
     id="g64"
     transform="translate(-34579.98,-20696)">
    <g
       id="g26" />
    <g
       style="fill:#000000;fill-opacity:0;stroke:#000000;stroke-width:100;stroke-linecap:round;stroke-linejoin:round;stroke-opacity:1"
       id="g30">
      <path
         style="fill:none;fill-opacity:0;stroke:#000000;stroke-width:100;stroke-linecap:round;stroke-linejoin:round;stroke-opacity:1"
         d="m 41000,23500 v 1000"
         id="path28" />
    </g>
    <g
       style="fill:#000000;fill-opacity:0;stroke:#000000;stroke-width:60;stroke-linecap:round;stroke-linejoin:round;stroke-opacity:1"
       id="g34">
      <path
         style="fill:none;fill-opacity:0;stroke:#000000;stroke-width:60;stroke-linecap:round;stroke-linejoin:round;stroke-opacity:1"
         d="M 41000,24000 H 40000"
         id="path32" />
    </g>
    <g
       style="fill:#000000;fill-opacity:0;stroke:#000000;stroke-width:100;stroke-linecap:round;stroke-linejoin:round;stroke-opacity:1"
       id="g38">
      <path
         style="fill:none;fill-opacity:0;stroke:#000000;stroke-width:100;stroke-linecap:round;stroke-linejoin:round;stroke-opacity:1"
         d="m 40000,23500 v 1000 l 1000,-500 z"
         id="path36" />
    </g>
    <g
       style="fill:#000000;fill-opacity:0;stroke:#000000;stroke-width:60;stroke-linecap:round;stroke-linejoin:round;stroke-opacity:1"
       id="g62">
      <path
         style="fill:none;fill-opacity:0;stroke:#000000;stroke-width:60;stroke-linecap:round;stroke-linejoin:round;stroke-opacity:1"
         d="m 41700,23700 600,-600 h -300 300 v 300"
         id="path40" />
      <path
         style="fill:none;fill-opacity:0;stroke:#000000;stroke-width:60;stroke-linecap:round;stroke-linejoin:round;stroke-opacity:1"
         d="m 41200,23700 600,-600 h -300 300 v 300"
         id="path42" />
      <path
         d="m 41000,24000 h 1000"
         id="path44" />
      <path
         d="M 40000,24000 H 39000"
         id="path46" />
      <text
         x="40499.961"
         y="23250"
         textLength="1417.126"
         font-size="666.654px"
         lengthAdjust="spacingAndGlyphs"
         text-anchor="middle"
         opacity="0"
         id="text48">LED</text>
      <g
         class="stroked-text"
         id="g60">
        <desc
           id="desc50">LED</desc>
        <path
           d="m 40178,23226 h -238 v -500"
           id="path52" />
        <path
           d="m 40345,22964 h 166"
           id="path54" />
        <path
           d="m 40583,23226 h -238 v -500 h 238"
           id="path56" />
        <path
           d="m 40797,23226 v -500 h 119 l 72,24 47,47 24,48 24,95 v 71 l -24,96 -24,47 -47,48 -72,24 h -119"
           id="path58" />
      </g>
    </g>
  </g>
  <g
     style="fill:#000000;fill-opacity:0;stroke:#000000;stroke-width:60;stroke-linecap:round;stroke-linejoin:round;stroke-opacity:1"
     id="g104"
     transform="translate(-34579.98,-20696)">
    <g
       id="g66" />
    <g
       style="fill:#000000;fill-opacity:0;stroke:#000000;stroke-width:100;stroke-linecap:round;stroke-linejoin:round;stroke-opacity:1"
       id="g70">
      <path
         style="fill:none;fill-opacity:0;stroke:#000000;stroke-width:100;stroke-linecap:round;stroke-linejoin:round;stroke-opacity:1"
         d="m 40000,21500 v 1000"
         id="path68" />
    </g>
    <g
       style="fill:#000000;fill-opacity:0;stroke:#000000;stroke-width:60;stroke-linecap:round;stroke-linejoin:round;stroke-opacity:1"
       id="g74">
      <path
         style="fill:none;fill-opacity:0;stroke:#000000;stroke-width:60;stroke-linecap:round;stroke-linejoin:round;stroke-opacity:1"
         d="m 40000,22000 h 1000"
         id="path72" />
    </g>
    <g
       style="fill:#000000;fill-opacity:0;stroke:#000000;stroke-width:100;stroke-linecap:round;stroke-linejoin:round;stroke-opacity:1"
       id="g78">
      <path
         style="fill:none;fill-opacity:0;stroke:#000000;stroke-width:100;stroke-linecap:round;stroke-linejoin:round;stroke-opacity:1"
         d="m 41000,21500 v 1000 l -1000,-500 z"
         id="path76" />
    </g>
    <g
       style="fill:#000000;fill-opacity:0;stroke:#000000;stroke-width:60;stroke-linecap:round;stroke-linejoin:round;stroke-opacity:1"
       id="g102">
      <path
         style="fill:none;fill-opacity:0;stroke:#000000;stroke-width:60;stroke-linecap:round;stroke-linejoin:round;stroke-opacity:1"
         d="m 39300,21700 -600,-600 h 300 -300 v 300"
         id="path80" />
      <path
         style="fill:none;fill-opacity:0;stroke:#000000;stroke-width:60;stroke-linecap:round;stroke-linejoin:round;stroke-opacity:1"
         d="m 39800,21700 -600,-600 h 300 -300 v 300"
         id="path82" />
      <path
         d="M 40000,22000 H 39000"
         id="path84" />
      <path
         d="m 41000,22000 h 1000"
         id="path86" />
      <text
         x="40500"
         y="21250"
         textLength="1417.126"
         font-size="666.654px"
         lengthAdjust="spacingAndGlyphs"
         text-anchor="middle"
         opacity="0"
         id="text88">LED</text>
      <g
         class="stroked-text"
         id="g100">
        <desc
           id="desc90">LED</desc>
        <path
           d="m 40178,21226 h -238 v -500"
           id="path92" />
        <path
           d="m 40345,20964 h 166"
           id="path94" />
        <path
           d="m 40583,21226 h -238 v -500 h 238"
           id="path96" />
        <path
           d="m 40797,21226 v -500 h 119 l 72,24 47,47 24,48 24,95 v 71 l -24,96 -24,47 -47,48 -72,24 h -119"
           id="path98" />
      </g>
    </g>
  </g>
  <g
     style="fill:#000000;fill-opacity:0;stroke:#000000;stroke-width:60;stroke-linecap:round;stroke-linejoin:round;stroke-opacity:1"
     id="g138"
     transform="translate(-34579.98,-20696)">
    <g
       id="g136">
      <path
         style="fill:none;fill-opacity:0;stroke:#000000;stroke-width:60;stroke-linecap:round;stroke-linejoin:round;stroke-opacity:1"
         d="m 38400,24000 h 100"
         id="path106" />
      <path
         style="fill:none;fill-opacity:0;stroke:#000000;stroke-width:60;stroke-linecap:round;stroke-linejoin:round;stroke-opacity:1"
         d="m 36600,24000 h -100"
         id="path108" />
      <path
         style="fill:none;fill-opacity:0;stroke:#000000;stroke-width:60;stroke-linecap:round;stroke-linejoin:round;stroke-opacity:1"
         d="m 37800,24000 150,-400 150,400 150,400 150,-400"
         id="path110" />
      <path
         style="fill:none;fill-opacity:0;stroke:#000000;stroke-width:60;stroke-linecap:round;stroke-linejoin:round;stroke-opacity:1"
         d="m 37200,24000 150,-400 150,400 150,400 150,-400"
         id="path112" />
      <path
         style="fill:none;fill-opacity:0;stroke:#000000;stroke-width:60;stroke-linecap:round;stroke-linejoin:round;stroke-opacity:1"
         d="m 36600,24000 150,-400 150,400 150,400 150,-400"
         id="path114" />
      <path
         d="m 36500,24000 h -500"
         id="path116" />
      <path
         d="m 38500,24000 h 500"
         id="path118" />
      <text
         x="37500"
         y="23250"
         textLength="1988.5826"
         font-size="666.654px"
         lengthAdjust="spacingAndGlyphs"
         text-anchor="middle"
         opacity="0"
         id="text120">330R</text>
      <g
         class="stroked-text"
         id="g134">
        <desc
           id="desc122">330R</desc>
        <path
           d="m 36607,22726 h 309 l -166,190 h 71 l 48,24 23,24 24,47 v 119 l -24,48 -23,24 -48,24 h -143 l -48,-24 -23,-24"
           id="path124" />
        <path
           d="m 37083,22726 h 309 l -166,190 h 71 l 48,24 24,24 23,47 v 119 l -23,48 -24,24 -48,24 h -143 l -47,-24 -24,-24"
           id="path126" />
        <path
           d="m 37702,22726 h 48 l 47,24 24,23 24,48 24,95 v 119 l -24,95 -24,48 -24,24 -47,24 h -48 l -48,-24 -24,-24 -23,-48 -24,-95 v -119 l 24,-95 23,-48 24,-23 48,-24"
           id="path128" />
        <path
           d="m 38369,23226 -167,-238"
           id="path130" />
        <path
           d="m 38083,23226 v -500 h 190 l 48,24 24,23 24,48 v 71 l -24,48 -24,24 -48,24 h -190"
           id="path132" />
      </g>
    </g>
  </g>
  <g
     style="fill:#000000;fill-opacity:0;stroke:#000000;stroke-width:60;stroke-linecap:round;stroke-linejoin:round;stroke-opacity:1"
     id="g162"
     transform="translate(-34579.98,-20696)">
    <g
       id="g160">
      <path
         style="fill:none;fill-opacity:0;stroke:#000000;stroke-width:60;stroke-linecap:round;stroke-linejoin:round;stroke-opacity:1"
         d="m 35700,24500 300,500"
         id="path140" />
      <path
         style="fill:none;fill-opacity:0;stroke:#000000;stroke-width:60;stroke-linecap:round;stroke-linejoin:round;stroke-opacity:1"
         d="m 36000,24000 v 1000"
         id="path142" />
      <path
         style="fill:none;fill-opacity:0;stroke:#000000;stroke-width:60;stroke-linecap:round;stroke-linejoin:round;stroke-opacity:1"
         d="m 36000,25000 300,-500"
         id="path144" />
      <text
         x="36000"
         y="25750"
         textLength="1583.8188"
         font-size="666.654px"
         lengthAdjust="spacingAndGlyphs"
         text-anchor="middle"
         opacity="0"
         id="text146">+5V</text>
      <g
         class="stroked-text"
         id="g158">
        <desc
           id="desc148">+5V</desc>
        <path
           d="m 35357,25535 h 381"
           id="path150" />
        <path
           d="m 35547,25726 v -381"
           id="path152" />
        <path
           d="m 36214,25226 h -238 l -24,238 24,-24 47,-24 h 119 l 48,24 24,24 24,47 v 119 l -24,48 -24,24 -48,24 h -119 l -47,-24 -24,-24"
           id="path154" />
        <path
           d="m 36380,25226 167,500 167,-500"
           id="path156" />
      </g>
    </g>
  </g>
  <g
     style="fill:#000000;fill-opacity:0;stroke:#000000;stroke-width:62.5197;stroke-linecap:round;stroke-linejoin:round;stroke-opacity:1"
     id="g164"
     transform="translate(-34579.98,-20696)" />
  <g
     style="fill:#000000;fill-opacity:0;stroke:#000000;stroke-width:60;stroke-linecap:round;stroke-linejoin:round;stroke-opacity:1"
     id="g252"
     transform="translate(-34579.98,-20696)">
    <text
       x="36000"
       y="23862.48"
       textLength="1464.7638"
       font-size="666.654px"
       lengthAdjust="spacingAndGlyphs"
       text-anchor="end"
       opacity="0"
       id="text166">PV1</text>
    <g
       class="stroked-text"
       id="g178">
      <desc
         id="desc168">PV1</desc>
      <path
         d="m 34684,23838 v -500 h 190 l 48,24 24,24 24,47 v 72 l -24,47 -24,24 -48,24 h -190"
         id="path170" />
      <path
         d="m 35112,23338 167,500 167,-500"
         id="path172" />
      <path
         d="m 35874,23838 h -285"
         id="path174" />
      <path
         d="m 35731,23838 v -500 l -47,72 -48,47 -47,24"
         id="path176" />
    </g>
    <path
       d="m 42500,22000 h -500"
       id="path180" />
    <path
       d="m 42500,22000 v 2000"
       id="path182" />
    <path
       d="m 42500,24000 h -500"
       id="path184" />
    <path
       d="m 39000,22000 v 2000"
       id="path186" />
    <text
       x="42000"
       y="25749.961"
       textLength="1583.8188"
       font-size="666.654px"
       lengthAdjust="spacingAndGlyphs"
       text-anchor="middle"
       opacity="0"
       id="text188">GND</text>
    <g
       class="stroked-text"
       id="g198">
      <desc
         id="desc190">GND</desc>
      <path
         d="m 41619,25249 -48,-23 h -71 l -72,23 -48,48 -23,48 -24,95 v 71 l 24,96 23,47 48,48 72,24 h 47 l 72,-24 23,-24 v -167 h -95"
         id="path192" />
      <path
         d="m 41857,25726 v -500 l 285,500 v -500"
         id="path194" />
      <path
         d="m 42380,25726 v -500 h 120 l 71,23 48,48 23,48 24,95 v 71 l -24,96 -23,47 -48,48 -71,24 h -120"
         id="path196" />
    </g>
    <text
       x="40499.961"
       y="23250"
       textLength="1417.126"
       font-size="666.654px"
       lengthAdjust="spacingAndGlyphs"
       text-anchor="middle"
       opacity="0"
       id="text200">LED</text>
    <g
       class="stroked-text"
       id="g212">
      <desc
         id="desc202">LED</desc>
      <path
         d="m 40178,23226 h -238 v -500"
         id="path204" />
      <path
         d="m 40345,22964 h 166"
         id="path206" />
      <path
         d="m 40583,23226 h -238 v -500 h 238"
         id="path208" />
      <path
         d="m 40797,23226 v -500 h 119 l 72,24 47,47 24,48 24,95 v 71 l -24,96 -24,47 -47,48 -72,24 h -119"
         id="path210" />
    </g>
    <path
       d="m 41000,24000 h 1000"
       id="path214" />
    <path
       d="M 40000,24000 H 39000"
       id="path216" />
    <text
       x="37500"
       y="23250"
       textLength="1988.5826"
       font-size="666.654px"
       lengthAdjust="spacingAndGlyphs"
       text-anchor="middle"
       opacity="0"
       id="text218">330R</text>
    <g
       class="stroked-text"
       id="g232">
      <desc
         id="desc220">330R</desc>
      <path
         d="m 36607,22726 h 309 l -166,190 h 71 l 48,24 23,24 24,47 v 119 l -24,48 -23,24 -48,24 h -143 l -48,-24 -23,-24"
         id="path222" />
      <path
         d="m 37083,22726 h 309 l -166,190 h 71 l 48,24 24,24 23,47 v 119 l -23,48 -24,24 -48,24 h -143 l -47,-24 -24,-24"
         id="path224" />
      <path
         d="m 37702,22726 h 48 l 47,24 24,23 24,48 24,95 v 119 l -24,95 -24,48 -24,24 -47,24 h -48 l -48,-24 -24,-24 -23,-48 -24,-95 v -119 l 24,-95 23,-48 24,-23 48,-24"
         id="path226" />
      <path
         d="m 38369,23226 -167,-238"
         id="path228" />
      <path
         d="m 38083,23226 v -500 h 190 l 48,24 24,23 24,48 v 71 l -24,48 -24,24 -48,24 h -190"
         id="path230" />
    </g>
    <path
       d="m 36500,24000 h -500"
       id="path234" />
    <path
       d="m 38500,24000 h 500"
       id="path236" />
    <text
       x="36000"
       y="25750"
       textLength="1583.8188"
       font-size="666.654px"
       lengthAdjust="spacingAndGlyphs"
       text-anchor="middle"
       opacity="0"
       id="text238">+5V</text>
    <g
       class="stroked-text"
       id="g250">
      <desc
         id="desc240">+5V</desc>
      <path
         d="m 35357,25535 h 381"
         id="path242" />
      <path
         d="m 35547,25726 v -381"
         id="path244" />
      <path
         d="m 36214,25226 h -238 l -24,238 24,-24 47,-24 h 119 l 48,24 24,24 24,47 v 119 l -24,48 -24,24 -48,24 h -119 l -47,-24 -24,-24"
         id="path246" />
      <path
         d="m 36380,25226 167,500 167,-500"
         id="path248" />
    </g>
  </g>
  <g
     style="fill:#000000;fill-opacity:1;stroke:#000000;stroke-width:60;stroke-linecap:round;stroke-linejoin:round;stroke-opacity:1"
     id="g258"
     transform="translate(-34579.98,-20696)">
    <circle
       cx="42000"
       cy="24000"
       r="180"
       id="circle254" />
    <circle
       cx="39000"
       cy="24000"
       r="180"
       id="circle256" />
  </g>
  <metadata
     id="metadata266">
    <rdf:RDF>
      <cc:Work
         rdf:about="">
        <dc:title>SVG Picture created as blink_led_reverse.svg date 2023/02/05 21:39:39 </dc:title>
      </cc:Work>
    </rdf:RDF>
  </metadata>
</svg>
